<svg height="512pt" viewBox="0 -16 512.04 512" width="512pt" xmlns="http://www.w3.org/2000/svg"><path d="m143.816406 440.019531c-26.480468 0-48.015625-21.535156-48.015625-48.015625 0-26.480468 21.535157-48.015625 48.015625-48.015625 4.421875 0 8 3.574219 8 8 0 4.421875-3.578125 8-8 8-17.65625 0-32.015625 14.359375-32.015625 32.015625s14.359375 32.015625 32.015625 32.015625c4.421875 0 8 3.578125 8 8 0 4.425781-3.578125 8-8 8zm0 0"/><path d="m103.800781 112.019531c-4.425781 0-8-3.582031-8-8 0-26.472656 21.535157-48 48.015625-48 4.421875 0 8 3.585938 8 8 0 4.417969-3.578125 8-8 8-17.65625 0-32.015625 14.351563-32.015625 32 0 4.425781-3.578125 8-8 8zm0 0"/><path d="m103.800781 184.019531c-4.425781 0-8-3.582031-8-8 0-26.472656 21.535157-48 48.015625-48 4.421875 0 8 3.585938 8 8 0 4.417969-3.578125 8-8 8-17.65625 0-32.015625 14.351563-32.015625 32 0 4.425781-3.578125 8-8 8zm0 0"/><path d="m103.800781 256.019531c-4.425781 0-8-3.574219-8-8 0-26.472656 21.535157-48 48.015625-48 4.421875 0 8 3.585938 8 8 0 4.417969-3.578125 8-8 8-17.65625 0-32.015625 14.351563-32.015625 32 0 4.425781-3.578125 8-8 8zm0 0"/><path d="m103.800781 328.019531c-4.425781 0-8-3.574219-8-8 0-26.472656 21.535157-48 48.015625-48 4.421875 0 8 3.578125 8 8 0 4.425781-3.578125 8-8 8-17.65625 0-32.015625 14.351563-32.015625 32 0 4.425781-3.578125 8-8 8zm0 0"/><path d="m183.800781 440.019531h-40c-4.425781 0-8-3.574219-8-8 0-4.421875 3.574219-8 8-8h40c4.421875 0 8 3.578125 8 8 0 4.425781-3.578125 8-8 8zm0 0"/><path d="m375.800781 440.019531c-4.425781 0-8-3.574219-8-8 0-4.421875 3.574219-8 8-8 13.230469 0 24-10.765625 24-24 0-4.421875 3.574219-8 8-8 4.421875 0 8 3.578125 8 8 0 22.054688-17.945312 40-40 40zm0 0"/><path d="m375.800781 360.019531h-232c-4.425781 0-8-3.574219-8-8 0-4.421875 3.574219-8 8-8h232c4.421875 0 8 3.578125 8 8 0 4.425781-3.578125 8-8 8zm0 0"/><path d="m375.800781 72.019531h-232c-4.425781 0-8-3.582031-8-8 0-4.414062 3.574219-8 8-8h232c4.421875 0 8 3.585938 8 8 0 4.417969-3.578125 8-8 8zm0 0"/><path d="m375.800781 360.019531c-4.425781 0-8-3.574219-8-8 0-4.421875 3.574219-8 8-8 24 0 24-12.039062 24-16 0-4.421875 3.574219-8 8-8 4.421875 0 8 3.578125 8 8 0 20.039063-14.953125 32-40 32zm0 0"/><path d="m407.800781 104.019531c-4.425781 0-8-3.582031-8-8 0-13.230469-10.769531-24-24-24-4.425781 0-8-3.582031-8-8 0-4.414062 3.574219-8 8-8 22.054688 0 40 17.945313 40 40 0 4.417969-3.578125 8-8 8zm0 0"/><path d="m407.800781 408.019531c-4.425781 0-8-3.574219-8-8v-304c0-4.414062 3.574219-8 8-8 4.421875 0 8 3.585938 8 8v304c0 4.425781-3.578125 8-8 8zm0 0"/><path d="m375.800781 440.019531c-4.425781 0-8-3.574219-8-8v-80c0-4.421875 3.574219-8 8-8 4.421875 0 8 3.578125 8 8v80c0 4.425781-3.578125 8-8 8zm0 0"/><path d="m247.800781 400.019531h-80c-4.425781 0-8-3.574219-8-8 0-4.421875 3.574219-8 8-8h80c4.421875 0 8 3.578125 8 8 0 4.425781-3.578125 8-8 8zm0 0"/><path d="m183.800781 456.019531c-4.425781 0-8-3.574219-8-8v-56c0-4.421875 3.574219-8 8-8 4.421875 0 8 3.578125 8 8v56c0 4.425781-3.578125 8-8 8zm0 0"/><path d="m231.800781 456.019531c-4.425781 0-8-3.574219-8-8v-56c0-4.421875 3.574219-8 8-8 4.421875 0 8 3.578125 8 8v56c0 4.425781-3.578125 8-8 8zm0 0"/><path d="m231.800781 456.019531c-.832031 0-1.6875-.136719-2.527343-.414062l-24-8c-4.183594-1.394531-6.457032-5.921875-5.058594-10.121094 1.402344-4.183594 5.890625-6.472656 10.121094-5.054687l24 8c4.183593 1.390624 6.457031 5.917968 5.054687 10.117187-1.117187 3.351563-4.238281 5.472656-7.589844 5.472656zm0 0"/><path d="m183.800781 456.019531c-3.351562 0-6.472656-2.121093-7.585937-5.472656-1.398438-4.191406.863281-8.726563 5.058594-10.117187l24-8c4.214843-1.417969 8.71875.863281 10.117187 5.054687 1.402344 4.191406-.863281 8.726563-5.054687 10.121094l-24 8c-.847657.277343-1.703126.414062-2.535157.414062zm0 0"/><path d="m375.800781 440.019531h-144c-4.425781 0-8-3.574219-8-8 0-4.421875 3.574219-8 8-8h144c4.421875 0 8 3.578125 8 8 0 4.425781-3.578125 8-8 8zm0 0"/><path d="m103.800781 400.003906c-4.425781 0-8-3.574218-8-8v-287.984375c0-4.414062 3.574219-8 8-8 4.421875 0 8 3.585938 8 8v287.984375c0 4.425782-3.578125 8-8 8zm0 0"/><path d="m167.800781 360.003906c-4.425781 0-8-3.574218-8-8v-287.984375c0-4.414062 3.574219-8 8-8 4.421875 0 8 3.585938 8 8v287.984375c0 4.425782-3.578125 8-8 8zm0 0"/><path d="m167.800781 144.019531h-23.984375c-4.425781 0-8-3.582031-8-8 0-4.414062 3.574219-8 8-8h23.984375c4.421875 0 8 3.585938 8 8 0 4.417969-3.578125 8-8 8zm0 0"/><path d="m167.800781 216.019531h-23.984375c-4.425781 0-8-3.582031-8-8 0-4.414062 3.574219-8 8-8h23.984375c4.421875 0 8 3.585938 8 8 0 4.417969-3.578125 8-8 8zm0 0"/><path d="m167.800781 288.019531h-23.984375c-4.425781 0-8-3.574219-8-8 0-4.421875 3.574219-8 8-8h23.984375c4.421875 0 8 3.578125 8 8 0 4.425781-3.578125 8-8 8zm0 0"/><path d="m287.800781 296.019531c-48.519531 0-88-39.480469-88-88s39.480469-88 88-88 88 39.480469 88 88-39.480469 88-88 88zm0-160c-39.703125 0-72 32.304688-72 72 0 39.703125 32.296875 72 72 72s72-32.304687 72-72c0-39.703125-32.296875-72-72-72zm0 0"/><path d="m287.800781 264.019531c-30.871093 0-56-25.128906-56-56 0-30.871093 25.128907-56 56-56 30.871094 0 56 25.121094 56 56 0 30.878907-25.128906 56-56 56zm0-96c-22.058593 0-40 17.945313-40 40 0 22.054688 17.941407 40 40 40 22.054688 0 40-17.945312 40-40 0-22.054687-17.945312-40-40-40zm0 0"/><path d="m287.800781 232.019531c-13.234375 0-24-10.765625-24-24 0-13.230469 10.765625-24 24-24 13.230469 0 24 10.769531 24 24 0 13.234375-10.769531 24-24 24zm0-32c-4.417969 0-8 3.59375-8 8 0 4.410157 3.582031 8 8 8 4.414063 0 8-3.589843 8-8 0-4.40625-3.585937-8-8-8zm0 0"/><path d="m287.800781 272.019531c-4.425781 0-8-3.574219-8-8v-16c0-4.414062 3.574219-8 8-8 4.421875 0 8 3.585938 8 8v16c0 4.425781-3.578125 8-8 8zm0 0"/><path d="m287.800781 176.019531c-4.425781 0-8-3.582031-8-8v-16c0-4.414062 3.574219-8 8-8 4.421875 0 8 3.585938 8 8v16c0 4.425781-3.578125 8-8 8zm0 0"/><path d="m327.390625 255.613281c-2.046875 0-4.09375-.777343-5.65625-2.335937l-11.308594-11.320313c-3.128906-3.128906-3.128906-8.183593 0-11.3125 3.125-3.128906 8.183594-3.128906 11.308594 0l11.3125 11.3125c3.128906 3.128907 3.128906 8.191407 0 11.320313-1.558594 1.566406-3.605469 2.335937-5.65625 2.335937zm0 0"/><path d="m259.519531 187.738281c-2.046875 0-4.09375-.78125-5.65625-2.34375l-11.3125-11.320312c-3.125-3.125-3.125-8.191407 0-11.316407 3.128907-3.121093 8.183594-3.121093 11.3125 0l11.3125 11.316407c3.128907 3.128906 3.128907 8.195312 0 11.320312-1.558593 1.570313-3.609375 2.34375-5.65625 2.34375zm0 0"/><path d="m343.800781 216.027344h-16c-4.425781 0-8-3.582032-8-8 0-4.414063 3.574219-8 8-8h16c4.421875 0 8 3.585937 8 8 0 4.417968-3.578125 8-8 8zm0 0"/><path d="m247.800781 216.027344-16.007812-.007813c-4.417969 0-7.992188-3.582031-7.992188-8 0-4.414062 3.582031-8 8-8h.007813l16 .007813c4.414062 0 7.992187 3.585937 7.992187 8 0 4.417968-3.585937 8-8 8zm0 0"/><path d="m316.078125 187.746094c-2.046875 0-4.09375-.78125-5.652344-2.34375-3.128906-3.125-3.128906-8.183594 0-11.308594l11.316407-11.320312c3.128906-3.128907 8.1875-3.128907 11.3125 0 3.128906 3.125 3.128906 8.183593 0 11.3125l-11.320313 11.316406c-1.558594 1.570312-3.605469 2.34375-5.65625 2.34375zm0 0"/><path d="m248.199219 255.621094c-2.046875 0-4.09375-.785156-5.65625-2.34375-3.128907-3.128906-3.128907-8.183594 0-11.3125l11.320312-11.3125c3.128907-3.121094 8.183594-3.121094 11.3125 0 3.128907 3.121094 3.128907 8.191406 0 11.320312l-11.320312 11.3125c-1.558594 1.566406-3.609375 2.335938-5.65625 2.335938zm0 0"/><path d="m487.800781 72.019531c-4.425781 0-8-3.582031-8-8v-32c0-4.414062 3.574219-8 8-8 4.421875 0 8 3.585938 8 8v32c0 4.417969-3.578125 8-8 8zm0 0"/><path d="m495.800781 56.019531h-16c-4.425781 0-8-3.582031-8-8 0-4.414062 3.574219-8 8-8h16c4.421875 0 8 3.585938 8 8 0 4.417969-3.578125 8-8 8zm0 0"/><path d="m39.800781 464.019531c-4.425781 0-8-3.574219-8-8v-32c0-4.421875 3.574219-8 8-8 4.421875 0 8 3.578125 8 8v32c0 4.425781-3.578125 8-8 8zm0 0"/><path d="m47.800781 448.019531h-16c-4.425781 0-8-3.574219-8-8 0-4.421875 3.574219-8 8-8h16c4.421875 0 8 3.578125 8 8 0 4.425781-3.578125 8-8 8zm0 0"/><path d="m55.800781 80.019531c-4.425781 0-8-3.582031-8-8v-48c0-4.414062 3.574219-8 8-8 4.421875 0 8 3.585938 8 8v48c0 4.417969-3.578125 8-8 8zm0 0"/><path d="m63.800781 56.019531h-16c-4.425781 0-8-3.574219-8-8 0-4.421875 3.574219-8 8-8h16c4.421875 0 8 3.585938 8 8 0 4.417969-3.578125 8-8 8zm0 0"/><path d="m471.800781 480.019531c-4.425781 0-8-3.574219-8-8v-48c0-4.421875 3.574219-8 8-8 4.421875 0 8 3.578125 8 8v48c0 4.425781-3.578125 8-8 8zm0 0"/><path d="m479.800781 456.019531h-16c-4.425781 0-8-3.574219-8-8 0-4.421875 3.574219-8 8-8h16c4.421875 0 8 3.578125 8 8 0 4.425781-3.578125 8-8 8zm0 0"/><path d="m360.039062 32.019531c-4.421874 0-8.039062-3.582031-8.039062-8 0-4.414062 3.535156-8 7.953125-8h.085937c4.417969 0 8 3.585938 8 8 0 4.417969-3.582031 8-8 8zm0 0"/><path d="m456.039062 192.019531c-4.421874 0-8.039062-3.582031-8.039062-8 0-4.414062 3.535156-8 7.953125-8h.085937c4.417969 0 8 3.585938 8 8 0 4.417969-3.582031 8-8 8zm0 0"/><path d="m8.039062 192.019531c-4.421874 0-8.039062-3.582031-8.039062-8 0-4.414062 3.535156-8 7.953125-8h.085937c4.417969 0 8 3.585938 8 8 0 4.417969-3.582031 8-8 8zm0 0"/><path d="m504.039062 328.019531c-4.421874 0-8.039062-3.574219-8.039062-8 0-4.421875 3.535156-8 7.953125-8h.085937c4.417969 0 8 3.578125 8 8 0 4.425781-3.582031 8-8 8zm0 0"/><path d="m56.039062 320.019531c-4.421874 0-8.039062-3.574219-8.039062-8 0-4.421875 3.535156-8 7.953125-8h.085937c4.417969 0 8 3.578125 8 8 0 4.425781-3.582031 8-8 8zm0 0"/><path d="m304.039062 480.019531c-4.421874 0-8.039062-3.574219-8.039062-8 0-4.421875 3.535156-8 7.953125-8h.085937c4.417969 0 8 3.578125 8 8 0 4.425781-3.582031 8-8 8zm0 0"/><path d="m208.039062 16.019531c-4.421874 0-8.039062-3.582031-8.039062-8 0-4.414062 3.535156-7.9999998 7.953125-7.9999998h.085937c4.417969 0 8 3.5859378 8 7.9999998 0 4.417969-3.582031 8-8 8zm0 0"/></svg>